<?xml version="1.0" encoding="utf-8"?>

<!-- License Agreement at http://iconmonstr.com/license/ -->

<!DOCTYPE svg PUBLIC "-//W3C//DTD SVG 1.1//EN" "http://www.w3.org/Graphics/SVG/1.1/DTD/svg11.dtd">
<svg version="1.1" xmlns="http://www.w3.org/2000/svg" xmlns:xlink="http://www.w3.org/1999/xlink" x="0px" y="0px"
	 width="512px" height="512px" viewBox="0 0 512 512" enable-background="new 0 0 512 512" xml:space="preserve">
<path id="beer-11-icon" d="M363.721,274.902c-12.01,0-19.094-5.342-19.012-17.126c0.494-71.234-6.326-144.462-20.9-182.52
	c-32.721-33.636-212.716-33.716-245.515,0c-29.227,76.326-27.223,294.116,2.172,353.573c39.356,44.193,201.755,44.259,241.171,0
	c7.531-15.233,13.266-40.865,17.135-71.848c1.85-14.822,13.283-20.284,24.949-20.284V274.902z M115.874,404.112
	c-9.521-42.256-24.052-165.516-4.678-266.894c10.689,2.423,16.034,3.592,25.889,4.512c-13.529,96.7-11.86,183.215,5.845,272.403
	C125.56,411.794,115.874,404.112,115.874,404.112z M262.889,103.113c-10.292,2.066-14.536,9.138-14.379,18.165
	c0.281,16.174,12.479,38.625,13.626,49.822c1.717,16.766-8.685,29.396-25.052,29.396c-15.956,0-25.316-13.489-24.05-29.396
	c0.941-11.828,15.153-32.115,13.138-49.918c-1.787-15.789-13.359-14.573-23.868-14.573c-49.942,0-90.429-6.074-90.429-13.565
	s40.486-13.565,90.429-13.565s90.431,6.074,90.431,13.565C292.734,97.039,281.019,99.473,262.889,103.113z M454.631,351.479h-30.486
	l-6.346-17.956c-2.471-7.382-9.383-12.357-17.168-12.357H379.34v-30.564h24.996c17.57,0,33.203,11.157,38.916,27.774
	L454.631,351.479z M394.965,276.822h-16.051l-8.541-62.704c-1.346-9.883,6.341-18.717,16.34-18.717
	c9.943,0,17.629,8.744,16.355,18.602L394.965,276.822z"/>
</svg>
